{
	"asset":{
		"generator":"Khronos glTF Blender I/O v4.0.44",
		"version":"2.0"
	},
	"extensionsUsed":[
		"KHR_materials_unlit"
	],
	"scene":0,
	"scenes":[
		{
			"name":"Scene",
			"nodes":[
				0,
				1,
				2
			]
		}
	],
	"nodes":[
		{
			"mesh":0,
			"name":"Land",
			"scale":[
				17.002880096435547,
				17.002880096435547,
				17.002880096435547
			]
		},
		{
			"mesh":1,
			"name":"Grid",
			"scale":[
				16.9366512298584,
				16.9366512298584,
				16.9366512298584
			],
			"translation":[
				0,
				0.09742819517850876,
				0
			]
		},
		{
			"mesh":2,
			"name":"Sun",
			"scale":[
				4.876341819763184,
				4.876341819763184,
				4.876341819763184
			],
			"translation":[
				0,
				1.7549216747283936,
				-17.203767776489258
			]
		}
	],
	"materials":[
		{
			"doubleSided":true,
			"extensions":{
				"KHR_materials_unlit":{}
			},
			"name":"Material.001",
			"pbrMetallicRoughness":{
				"metallicFactor":0,
				"roughnessFactor":0.9
			}
		}
	],
	"meshes":[
		{
			"name":"Plane",
			"primitives":[
				{
					"attributes":{
						"COLOR_0":0,
						"POSITION":1,
						"NORMAL":2,
						"TEXCOORD_0":3
					},
					"indices":4,
					"material":0
				}
			]
		},
		{
			"name":"Plane.001",
			"primitives":[
				{
					"attributes":{
						"COLOR_0":5,
						"POSITION":6,
						"NORMAL":7,
						"TEXCOORD_0":8
					},
					"indices":9,
					"material":0
				}
			]
		},
		{
			"name":"Sphere",
			"primitives":[
				{
					"attributes":{
						"COLOR_0":10,
						"POSITION":11,
						"NORMAL":12,
						"TEXCOORD_0":13
					},
					"indices":14,
					"material":0
				}
			]
		}
	],
	"accessors":[
		{
			"bufferView":0,
			"componentType":5123,
			"count":15630,
			"normalized":true,
			"type":"VEC4"
		},
		{
			"bufferView":1,
			"componentType":5126,
			"count":15630,
			"max":[
				1,
				0.414054274559021,
				1
			],
			"min":[
				-1.0036656856536865,
				0,
				-1.0126584768295288
			],
			"type":"VEC3"
		},
		{
			"bufferView":2,
			"componentType":5126,
			"count":15630,
			"type":"VEC3"
		},
		{
			"bufferView":3,
			"componentType":5126,
			"count":15630,
			"type":"VEC2"
		},
		{
			"bufferView":4,
			"componentType":5123,
			"count":24576,
			"type":"SCALAR"
		},
		{
			"bufferView":5,
			"componentType":5123,
			"count":24832,
			"normalized":true,
			"type":"VEC4"
		},
		{
			"bufferView":6,
			"componentType":5126,
			"count":24832,
			"max":[
				1,
				0.0009999999310821295,
				1
			],
			"min":[
				-1,
				-0.0009999999310821295,
				-1
			],
			"type":"VEC3"
		},
		{
			"bufferView":7,
			"componentType":5126,
			"count":24832,
			"type":"VEC3"
		},
		{
			"bufferView":8,
			"componentType":5126,
			"count":24832,
			"type":"VEC2"
		},
		{
			"bufferView":9,
			"componentType":5123,
			"count":49152,
			"type":"SCALAR"
		},
		{
			"bufferView":10,
			"componentType":5123,
			"count":32369,
			"normalized":true,
			"type":"VEC4"
		},
		{
			"bufferView":11,
			"componentType":5126,
			"count":32369,
			"max":[
				0.9872310161590576,
				0.9975767135620117,
				0.9872307181358337
			],
			"min":[
				-0.9872305393218994,
				-0.9975767135620117,
				-0.9872310161590576
			],
			"type":"VEC3"
		},
		{
			"bufferView":12,
			"componentType":5126,
			"count":32369,
			"type":"VEC3"
		},
		{
			"bufferView":13,
			"componentType":5126,
			"count":32369,
			"type":"VEC2"
		},
		{
			"bufferView":14,
			"componentType":5123,
			"count":190464,
			"type":"SCALAR"
		}
	],
	"bufferViews":[
		{
			"buffer":0,
			"byteLength":125040,
			"byteOffset":0,
			"target":34962
		},
		{
			"buffer":0,
			"byteLength":187560,
			"byteOffset":125040,
			"target":34962
		},
		{
			"buffer":0,
			"byteLength":187560,
			"byteOffset":312600,
			"target":34962
		},
		{
			"buffer":0,
			"byteLength":125040,
			"byteOffset":500160,
			"target":34962
		},
		{
			"buffer":0,
			"byteLength":49152,
			"byteOffset":625200,
			"target":34963
		},
		{
			"buffer":0,
			"byteLength":198656,
			"byteOffset":674352,
			"target":34962
		},
		{
			"buffer":0,
			"byteLength":297984,
			"byteOffset":873008,
			"target":34962
		},
		{
			"buffer":0,
			"byteLength":297984,
			"byteOffset":1170992,
			"target":34962
		},
		{
			"buffer":0,
			"byteLength":198656,
			"byteOffset":1468976,
			"target":34962
		},
		{
			"buffer":0,
			"byteLength":98304,
			"byteOffset":1667632,
			"target":34963
		},
		{
			"buffer":0,
			"byteLength":258952,
			"byteOffset":1765936,
			"target":34962
		},
		{
			"buffer":0,
			"byteLength":388428,
			"byteOffset":2024888,
			"target":34962
		},
		{
			"buffer":0,
			"byteLength":388428,
			"byteOffset":2413316,
			"target":34962
		},
		{
			"buffer":0,
			"byteLength":258952,
			"byteOffset":2801744,
			"target":34962
		},
		{
			"buffer":0,
			"byteLength":380928,
			"byteOffset":3060696,
			"target":34963
		}
	],
	"buffers":[
		{
			"byteLength":3441624,
			"uri":"vapor.bin"
		}
	]
}
