{
  "asset": {
    "generator": "Khronos glTF Blender I/O v4.0.44",
    "version": "2.0"
  },
  "extensionsUsed": [
    "KHR_materials_specular",
    "KHR_materials_ior"
  ],
  "scene": 0,
  "scenes": [
    {
      "name": "Scene",
      "nodes": [
        0
      ]
    }
  ],
  "nodes": [
    {
      "mesh": 0,
      "name": "samuspoly.002"
    }
  ],
  "materials": [
    {
      "doubleSided": true,
      "extensions": {
        "KHR_materials_specular": {
          "specularFactor": 0
        },
        "KHR_materials_ior": {
          "ior": 1.4500000476837158
        }
      },
      "name": "Material__25.002",
      "pbrMetallicRoughness": {
        "baseColorFactor": [
          0.033196382224559784,
          0.6252293586730957,
          0.18442213535308838,
          1
        ],
        "metallicFactor": 0.25984254479408264,
        "roughnessFactor": 0
      }
    }
  ],
  "meshes": [
    {
      "name": "samuspoly.002",
      "primitives": [
        {
          "attributes": {
            "COLOR_0": 0,
            "POSITION": 1,
            "NORMAL": 2,
            "TEXCOORD_0": 3
          },
          "indices": 4,
          "material": 0
        }
      ]
    }
  ],
  "accessors": [
    {
      "bufferView": 0,
      "componentType": 5126,
      "count": 511,
      "type": "VEC4"
    },
    {
      "bufferView": 1,
      "componentType": 5126,
      "count": 511,
      "max": [
        0.19419515132904053,
        0.6096291542053223,
        0.11440768837928772
      ],
      "min": [
        -0.17819982767105103,
        0.0023121535778045654,
        -0.10808730125427246
      ],
      "type": "VEC3"
    },
    {
      "bufferView": 2,
      "componentType": 5126,
      "count": 511,
      "type": "VEC3"
    },
    {
      "bufferView": 3,
      "componentType": 5126,
      "count": 511,
      "type": "VEC2"
    },
    {
      "bufferView": 4,
      "componentType": 5123,
      "count": 519,
      "type": "SCALAR"
    }
  ],
  "bufferViews": [
    {
      "buffer": 0,
      "byteLength": 8176,
      "byteOffset": 0,
      "target": 34962
    },
    {
      "buffer": 0,
      "byteLength": 6132,
      "byteOffset": 8176,
      "target": 34962
    },
    {
      "buffer": 0,
      "byteLength": 6132,
      "byteOffset": 14308,
      "target": 34962
    },
    {
      "buffer": 0,
      "byteLength": 4088,
      "byteOffset": 20440,
      "target": 34962
    },
    {
      "buffer": 0,
      "byteLength": 1040,
      "byteOffset": 24528,
      "target": 34963
    }
  ],
  "buffers": [
    {
      "uri": "poly_data.bin",
      "byteLength": 25568
    }
  ]
}